<svg id="visual" width="153" height="600" xmlns="http://www.w3.org/2000/svg" xmlns:xlink="http://www.w3.org/1999/xlink" version="1.1">
<path d="M59 0L66.7 12.5C74.3 25 89.7 50 98.3 75C107 100 109 125 96.5 150C84 175 57 200 60.5 225C64 250 98 275 114.5 300C131 325 130 350 116.2 375C102.3 400 75.7 425 70.3 450C65 475 81 500 98.3 525C115.7 550 134.3 575 143.7 587.5L153 600L0 600L0 587.5C0 575 0 550 0 525C0 500 0 475 0 450C0 425 0 400 0 375C0 350 0 325 0 300C0 275 0 250 0 225C0 200 0 175 0 150C0 125 0 100 0 75C0 50 0 25 0 12.5L0 0Z" fill="#f9812a" stroke-linecap="round" stroke-linejoin="miter"></path>
</svg>